<?xml version="1.0" encoding="UTF-8"?>
<!DOCTYPE svg PUBLIC "-//W3C//DTD SVG 1.1//EN" "http://www.w3.org/Graphics/SVG/1.1/DTD/svg11.dtd">
<!-- Creator: CorelDRAW 2020 (64-Bit) -->
<svg xmlns="http://www.w3.org/2000/svg" xml:space="preserve" width="5.46433in" height="0.77202in" version="1.1" style="shape-rendering:geometricPrecision; text-rendering:geometricPrecision; image-rendering:optimizeQuality; fill-rule:evenodd; clip-rule:evenodd"
viewBox="0 0 5463.91 771.96"
 xmlns:xlink="http://www.w3.org/1999/xlink"
 xmlns:xodm="http://www.corel.com/coreldraw/odm/2003">
 <defs>
  <style type="text/css">
   <![CDATA[
    .fil0 {fill:black;fill-rule:nonzero}
   ]]>
  </style>
 </defs>
 <g id="Layer_x0020_1">
  <metadata id="CorelCorpID_0Corel-Layer"/>
  <g id="_2254608300896">
   <path class="fil0" d="M300.26 383.42c-2.55,-6.81 -5.33,-11.5 -8.31,-14.05 -2.98,-2.55 -8.3,-3.83 -15.97,-3.83 -1.7,0 -5.11,0 -10.22,0 -4.26,0 -6.81,2.13 -7.66,6.39l0 102.22c0,44.29 2.13,88.16 6.39,131.6 4.26,43.44 6.39,87.31 6.39,131.6l0 17.89c-43.44,-11.07 -81.98,-28.32 -115.63,-51.74 -33.65,-23.43 -61.97,-51.32 -84.97,-83.69 -23,-32.37 -40.46,-68.36 -52.39,-107.96 -11.92,-39.61 -17.89,-81.13 -17.89,-124.57 0,-34.07 3.83,-68.57 11.5,-103.5 7.66,-34.92 19.38,-67.93 35.14,-99.02 15.76,-31.09 35.78,-59.2 60.05,-84.32 24.28,-25.13 53.02,-44.51 86.25,-58.14 12.78,-5.11 27.68,-11.5 44.72,-19.16 17.03,-7.67 33.22,-11.5 48.55,-11.5 1.7,0 3.41,0 5.11,0 1.7,0 2.55,0.43 2.55,1.28l72.83 71.55c3.41,3.41 6.81,5.32 10.22,5.75 3.41,0.43 7.24,0.64 11.5,0.64l7.67 0 77.94 -77.93c0,-0.85 0.85,-1.28 2.55,-1.28 1.7,0 3.41,0 5.11,0 13.63,0 27.68,2.77 42.17,8.3 14.48,5.54 27.68,10.86 39.61,15.97 68.99,31.52 120.31,77.94 153.96,139.27 33.65,61.33 50.47,129.47 50.47,204.43 0,43.45 -5.32,85.6 -15.97,126.49 -10.65,40.89 -27.26,78.16 -49.83,111.8 -22.57,33.65 -50.68,62.39 -84.33,86.25 -33.64,23.85 -73.47,40.89 -119.46,51.11l0 -8.94c0,-51.96 2.98,-103.7 8.94,-155.24 5.96,-51.54 8.94,-103.71 8.94,-156.52l0 -51.11c-2.55,-6.81 -5.32,-11.5 -8.3,-14.05 -2.98,-2.55 -8.31,-3.83 -15.97,-3.83 -2.56,0 -5.96,0 -10.22,0 -4.26,0 -6.81,2.13 -7.66,6.39 -0.85,8.52 -1.7,21.93 -2.55,40.24 -0.85,18.32 -2.13,39.19 -3.83,62.61 -1.7,23.42 -3.41,47.91 -5.11,73.47 -1.7,25.55 -3.41,50.04 -5.11,73.47 -1.7,23.42 -3.19,44.5 -4.47,63.24 -1.28,18.74 -2.34,32.37 -3.19,40.89 -0.85,6.81 -1.92,15.33 -3.19,25.55 -1.28,10.22 -1.92,15.33 -1.92,15.33l-114.99 0 -5.11 -11.5c-0.85,-0.85 -2.13,-8.73 -3.83,-23.64 -1.7,-14.91 -3.41,-32.58 -5.11,-53.02 -1.7,-20.44 -3.41,-41.31 -5.11,-62.61 -1.7,-21.3 -2.98,-38.76 -3.83,-52.39 -0.85,-6.81 -1.7,-18.74 -2.56,-35.78 -0.85,-17.04 -1.49,-35.14 -1.91,-54.3 -0.43,-19.16 -0.85,-37.26 -1.28,-54.3 -0.43,-17.04 -0.64,-28.96 -0.64,-35.78z"/>
   <path class="fil0" d="M887.99 411.53l283.65 0c5.96,0 10.43,-3.62 13.42,-10.86 2.98,-7.24 4.47,-12.56 4.47,-15.97 0,0 -0.64,-1.49 -1.92,-4.47 -1.28,-2.98 -2.77,-5.32 -4.47,-7.03 -0.85,-1.7 -1.92,-3.62 -3.2,-5.75 -1.28,-2.13 -1.91,-3.2 -1.91,-3.2l-288.76 0c0,-56.22 10.01,-106.68 30.03,-151.4 20.02,-44.72 47.49,-82.63 82.41,-113.72 34.92,-31.09 75.81,-55.15 122.66,-72.19 46.85,-17.03 96.68,-25.55 149.49,-25.55 52.81,0 102.64,8.3 149.49,24.91 46.85,16.61 87.73,40.67 122.66,72.19 34.92,31.52 62.61,69.63 83.05,114.35 20.44,44.72 30.67,95.19 30.67,151.4l-290.04 0c-4.26,0 -6.39,3.41 -6.39,10.22 0,6.81 0,10.65 0,11.5 0,3.41 0.21,8.52 0.64,15.33 0.43,6.81 4.05,10.22 10.86,10.22l283.64 0c0,56 -10.22,106.05 -30.66,150.13 -20.44,44.3 -48.34,81.56 -83.69,112.23 -35.35,30.45 -76.66,53.87 -123.94,69.85 -47.28,16.18 -97.32,24.28 -150.13,24.28 -51.11,0 -99.66,-8.52 -145.66,-25.56 -46,-16.82 -86.46,-41.1 -121.38,-72.4 -34.92,-31.52 -62.82,-68.99 -83.69,-112.65 -20.87,-43.87 -31.3,-92.42 -31.3,-145.87z"/>
   <path class="fil0" d="M1940.8 190.49c0,1.7 0,5.54 0,11.5 0,5.11 2.13,8.09 6.39,8.94 1.7,0 5.75,0.21 12.14,0.64 6.39,0.43 10.44,0.64 12.14,0.64 31.52,0 62.61,-1.28 93.27,-3.83 30.67,-2.55 62.18,-3.83 94.55,-3.83 32.37,0 64.31,1.28 95.83,3.83 31.52,2.55 63.46,3.83 95.83,3.83 1.7,0 5.32,-0.21 10.86,-0.64 5.54,-0.43 9.15,-0.64 10.86,-0.64 7.67,-4.26 11.5,-11.07 11.5,-20.44 0,-9.37 -3.83,-16.18 -11.5,-20.44 -37.48,-7.66 -71.12,-11.71 -100.93,-12.14 -29.82,-0.43 -63.88,-0.64 -102.22,-0.64l-114.99 0c-1.7,0 -5.32,0.21 -10.86,0.64 -5.54,0.43 -11.71,1.06 -18.53,1.91 -6.81,0.85 -13.63,1.7 -20.44,2.56 -6.81,0.85 -11.92,1.28 -15.33,1.28 -5.11,0.85 -12.99,1.92 -23.64,3.2 -10.64,1.28 -18.95,4.05 -24.92,8.3l0 15.33z"/>
   <path class="fil0" d="M2062.18 581.46c-17.04,0 -25.55,8.94 -25.55,26.83 0,25.55 2.13,51.32 6.39,77.3 4.26,25.98 6.39,51.74 6.39,77.3 -11.93,0 -26.41,-3.41 -43.44,-10.22 -17.04,-6.81 -30.67,-13.63 -40.89,-20.44 -67.29,-40.89 -115.21,-88.16 -143.74,-141.82 -28.53,-53.66 -42.8,-120.1 -42.8,-199.32 0,-57.07 8.73,-109.24 26.19,-156.52 17.46,-47.28 42.59,-87.73 75.38,-121.38 32.79,-33.64 72.4,-59.84 118.82,-78.58 46.43,-18.74 99.02,-28.11 157.79,-28.11 53.67,0 104.13,8.31 151.41,24.92 47.28,16.61 88.59,40.68 123.94,72.19 35.35,31.52 63.46,69.63 84.32,114.35 20.87,44.72 31.3,95.61 31.3,152.69l-187.82 0c-4.26,0 -6.39,3.83 -6.39,11.5 0,6.81 0,10.22 0,10.22 0,1.7 0.21,3.83 0.64,6.39 0.43,2.55 0.64,3.83 0.64,3.83l155.87 155.87 0 6.39c0,0 -1.28,2.55 -3.83,7.66 -2.55,5.11 -5.32,10.86 -8.31,17.25 -2.98,6.39 -6.17,12.77 -9.58,19.16 -3.41,6.39 -6.39,11.72 -8.94,15.97 -10.22,18.74 -22.78,35.35 -37.69,49.83 -14.91,14.48 -31.52,27.26 -49.83,38.33 -18.31,11.07 -37.48,20.66 -57.5,28.75 -20.02,8.09 -39.39,15.12 -58.14,21.08 -4.26,0.85 -9.37,2.13 -15.33,3.83 -5.96,1.7 -8.94,2.13 -8.94,1.28l-180.16 -185.27c0,0 -1.28,-0.21 -3.83,-0.64 -2.55,-0.43 -4.68,-0.64 -6.39,-0.64z"/>
   <path class="fil0" d="M2667.81 386.62c0,-57.92 9.16,-110.52 27.47,-158.22 18.31,-47.48 44.08,-88.16 77.3,-121.81 33.22,-33.64 73.47,-59.41 120.74,-77.72 47.27,-18.31 100.3,-27.47 159.07,-27.47 57.92,0 110.52,8.94 157.8,26.83 47.27,17.89 87.73,43.44 121.38,77.09 33.64,33.65 59.62,74.32 77.93,121.81 18.31,47.7 27.47,100.72 27.47,159.5 0,51.11 -8.52,99.66 -25.55,146.08 -17.03,46.21 -41.31,87.1 -72.83,122.44 -31.51,35.35 -69.21,63.03 -113.07,83.48 -43.87,20.44 -92.63,30.66 -146.29,30.66l0 -385.86c0,-6.81 -3.41,-11.5 -10.22,-14.05 -6.81,-2.55 -12.35,-3.83 -16.61,-3.83 -1.7,0 -5.96,0 -12.77,0 -5.96,0 -8.94,2.13 -8.94,6.39l0 398.64c-55.37,0 -105.41,-10.22 -150.13,-30.66 -44.72,-20.44 -82.84,-47.91 -114.35,-82.84 -31.52,-34.92 -55.79,-75.6 -72.83,-121.81 -17.03,-46.42 -25.55,-95.83 -25.55,-148.63z"/>
  </g>
  <polygon class="fil0" points="3906.26,356.75 3905.8,142.33 3799.51,319.78 3772.71,319.78 3666.43,145.1 3666.43,356.75 3609.12,356.75 3609.12,33.27 3658.57,33.27 3787.03,247.69 3913.19,33.27 3962.64,33.27 3963.1,356.75 "/>
  <path id="1" class="fil0" d="M4136.01 146.02c16.64,-25.88 45.91,-38.82 87.8,-38.82l0 54.99c-4.93,-0.93 -9.4,-1.39 -13.4,-1.39 -22.49,0 -40.05,6.55 -52.68,19.64 -12.63,13.09 -18.94,31.96 -18.94,56.61l0 119.69 -57.76 0 0 -246.77 54.99 0 0 36.04z"/>
  <path id="2" class="fil0" d="M4622.7 107.21c24.03,0 45.52,5.24 64.46,15.71 18.95,10.48 33.81,25.26 44.59,44.36 10.78,19.1 16.18,41.13 16.18,66.08 0,24.95 -5.39,47.06 -16.18,66.31 -10.78,19.25 -25.64,34.12 -44.59,44.59 -18.95,10.47 -40.43,15.71 -64.46,15.71 -16.95,0 -32.43,-2.93 -46.45,-8.78 -14.01,-5.85 -25.8,-14.63 -35.35,-26.34l0 31.89 -54.99 0 0 -342.89 57.76 0 0 126.16c9.86,-10.78 21.49,-18.94 34.89,-24.49 13.4,-5.55 28.11,-8.32 44.13,-8.32zm-6.47 203.33c21.26,0 38.74,-7.08 52.45,-21.25 13.71,-14.17 20.57,-32.81 20.57,-55.92 0,-23.1 -6.85,-41.74 -20.57,-55.91 -13.71,-14.17 -31.19,-21.26 -52.45,-21.26 -13.86,0 -26.34,3.16 -37.43,9.47 -11.09,6.32 -19.87,15.33 -26.34,27.03 -6.47,11.71 -9.7,25.26 -9.7,40.67 0,15.4 3.24,28.96 9.7,40.67 6.47,11.71 15.25,20.72 26.34,27.03 11.09,6.31 23.57,9.47 37.43,9.47z"/>
  <path id="3" class="fil0" d="M3996.19 109.98l57.76 0 0 246.77 -57.76 0 0 -246.77zm29.11 -40.66c-10.48,0 -19.25,-3.31 -26.34,-9.94 -7.09,-6.63 -10.63,-14.86 -10.63,-24.72 0,-9.86 3.54,-18.1 10.63,-24.72 7.09,-6.63 15.86,-9.94 26.34,-9.94 10.48,0 19.25,3.16 26.34,9.47 7.09,6.31 10.63,14.25 10.63,23.8 0,10.17 -3.47,18.72 -10.4,25.65 -6.93,6.93 -15.79,10.4 -26.57,10.4z"/>
  <path id="4" class="fil0" d="M4348.4 107.21c36.35,0 64.16,8.7 83.41,26.11 19.25,17.41 28.88,43.67 28.88,78.79l0 144.64 -54.53 0 0 -30.04c-7.09,10.78 -17.18,19.02 -30.27,24.72 -13.09,5.7 -28.88,8.55 -47.37,8.55 -18.49,0 -34.66,-3.16 -48.52,-9.48 -13.86,-6.31 -24.57,-15.09 -32.12,-26.34 -7.55,-11.24 -11.32,-23.95 -11.32,-38.12 0,-22.18 8.24,-39.97 24.72,-53.37 16.48,-13.4 42.44,-20.1 77.86,-20.1l63.77 0 0 -3.7c0,-17.25 -5.16,-30.5 -15.48,-39.74 -10.32,-9.24 -25.65,-13.87 -45.98,-13.87 -13.86,0 -27.49,2.16 -40.89,6.47 -13.4,4.31 -24.72,10.32 -33.97,18.02l-22.64 -42.05c12.94,-9.86 28.5,-17.41 46.67,-22.64 18.18,-5.24 37.43,-7.86 57.76,-7.86zm-7.85 210.72c14.48,0 27.34,-3.31 38.58,-9.94 11.25,-6.63 19.18,-16.1 23.8,-28.42l0 -28.65 -59.61 0c-33.27,0 -49.91,10.94 -49.91,32.81 0,10.48 4.16,18.79 12.48,24.95 8.32,6.16 19.87,9.24 34.66,9.24z"/>
  <path id="5" class="fil0" d="M5013.92 234.75c0,4.01 -0.31,9.7 -0.93,17.1l-193.62 0c3.39,18.18 12.24,32.58 26.57,43.21 14.33,10.63 32.12,15.94 53.37,15.94 27.11,0 49.45,-8.94 67.01,-26.8l30.96 35.58c-11.09,13.25 -25.11,23.26 -42.05,30.04 -16.94,6.78 -36.04,10.17 -57.3,10.17 -27.11,0 -50.98,-5.39 -71.62,-16.18 -20.64,-10.78 -36.58,-25.8 -47.83,-45.06 -11.24,-19.25 -16.86,-41.05 -16.86,-65.39 0,-24.03 5.47,-45.67 16.4,-64.92 10.94,-19.25 26.11,-34.27 45.52,-45.06 19.41,-10.78 41.28,-16.18 65.62,-16.18 24.03,0 45.52,5.31 64.46,15.94 18.95,10.63 33.73,25.57 44.36,44.82 10.63,19.25 15.94,41.51 15.94,66.77zm-124.77 -81.33c-18.49,0 -34.12,5.47 -46.91,16.4 -12.78,10.94 -20.56,25.49 -23.34,43.67l140.02 0c-2.46,-17.87 -10.01,-32.35 -22.64,-43.44 -12.63,-11.09 -28.34,-16.63 -47.13,-16.63z"/>
  <polygon id="6" class="fil0" points="5034.53,13.86 5092.29,13.86 5092.29,356.75 5034.53,356.75 "/>
  <polygon id="7" class="fil0" points="5133.23,13.86 5190.99,13.86 5190.99,356.75 5133.23,356.75 "/>
  <path id="8" class="fil0" d="M5463.91 234.75c0,4.01 -0.31,9.7 -0.93,17.1l-193.62 0c3.39,18.18 12.24,32.58 26.57,43.21 14.33,10.63 32.12,15.94 53.37,15.94 27.11,0 49.45,-8.94 67.01,-26.8l30.96 35.58c-11.09,13.25 -25.11,23.26 -42.05,30.04 -16.94,6.78 -36.04,10.17 -57.3,10.17 -27.11,0 -50.98,-5.39 -71.62,-16.18 -20.64,-10.78 -36.58,-25.8 -47.83,-45.06 -11.24,-19.25 -16.86,-41.05 -16.86,-65.39 0,-24.03 5.47,-45.67 16.4,-64.92 10.94,-19.25 26.11,-34.27 45.52,-45.06 19.41,-10.78 41.28,-16.18 65.62,-16.18 24.03,0 45.52,5.31 64.46,15.94 18.95,10.63 33.73,25.57 44.36,44.82 10.63,19.25 15.94,41.51 15.94,66.77zm-124.77 -81.33c-18.49,0 -34.12,5.47 -46.91,16.4 -12.78,10.94 -20.56,25.49 -23.34,43.67l140.02 0c-2.46,-17.87 -10.01,-32.35 -22.64,-43.44 -12.63,-11.09 -28.34,-16.63 -47.13,-16.63z"/>
  <polygon id="9" class="fil0" points="3892.4,768.72 3891.94,554.3 3785.65,731.75 3758.85,731.75 3652.56,557.08 3652.56,768.72 3595.26,768.72 3595.26,445.25 3644.71,445.25 3773.17,659.67 3899.33,445.25 3948.78,445.25 3949.24,768.72 "/>
  <path id="10" class="fil0" d="M4107.09 771.96c-24.95,0 -47.45,-5.39 -67.47,-16.18 -20.03,-10.78 -35.66,-25.8 -46.91,-45.06 -11.24,-19.25 -16.86,-41.05 -16.86,-65.39 0,-24.34 5.62,-46.06 16.86,-65.16 11.25,-19.1 26.88,-34.04 46.91,-44.82 20.02,-10.78 42.51,-16.18 67.47,-16.18 25.26,0 47.91,5.39 67.93,16.18 20.02,10.78 35.66,25.72 46.9,44.82 11.25,19.1 16.87,40.82 16.87,65.16 0,24.34 -5.62,46.13 -16.87,65.39 -11.24,19.25 -26.88,34.27 -46.9,45.06 -20.03,10.78 -42.67,16.18 -67.93,16.18zm0 -49.45c21.26,0 38.82,-7.08 52.68,-21.25 13.86,-14.17 20.79,-32.81 20.79,-55.92 0,-23.1 -6.93,-41.74 -20.79,-55.91 -13.87,-14.17 -31.42,-21.26 -52.68,-21.26 -21.26,0 -38.74,7.09 -52.45,21.26 -13.71,14.17 -20.57,32.81 -20.57,55.91 0,23.1 6.85,41.74 20.57,55.92 13.71,14.17 31.19,21.25 52.45,21.25z"/>
  <path id="11" class="fil0" d="M4314.39 558c16.64,-25.88 45.91,-38.82 87.8,-38.82l0 54.99c-4.93,-0.93 -9.4,-1.39 -13.4,-1.39 -22.49,0 -40.05,6.55 -52.68,19.64 -12.63,13.09 -18.94,31.96 -18.94,56.61l0 119.69 -57.76 0 0 -246.77 54.99 0 0 36.04z"/>
  <path id="12" class="fil0" d="M4800.61 519.18c31.12,0 56.07,9.09 74.86,27.27 18.79,18.18 28.19,45.13 28.19,80.87l0 141.41 -57.76 0 0 -134.01c0,-21.57 -5.08,-37.82 -15.25,-48.75 -10.16,-10.94 -24.64,-16.4 -43.44,-16.4 -21.26,0 -38.05,6.39 -50.37,19.18 -12.32,12.78 -18.48,31.19 -18.48,55.22l0 124.77 -57.76 0 0 -342.89 57.76 0 0 124.77c9.55,-10.16 21.33,-17.94 35.35,-23.34 14.01,-5.39 29.65,-8.09 46.9,-8.09z"/>
  <path id="13" class="fil0" d="M4523.07 519.18c36.35,0 64.16,8.7 83.41,26.11 19.25,17.41 28.88,43.67 28.88,78.79l0 144.64 -54.53 0 0 -30.04c-7.09,10.78 -17.18,19.02 -30.27,24.72 -13.09,5.7 -28.88,8.55 -47.37,8.55 -18.49,0 -34.66,-3.16 -48.52,-9.48 -13.86,-6.31 -24.57,-15.09 -32.12,-26.34 -7.55,-11.24 -11.32,-23.95 -11.32,-38.12 0,-22.18 8.24,-39.97 24.72,-53.37 16.48,-13.4 42.44,-20.1 77.86,-20.1l63.77 0 0 -3.7c0,-17.25 -5.16,-30.5 -15.48,-39.74 -10.32,-9.24 -25.65,-13.87 -45.98,-13.87 -13.86,0 -27.49,2.16 -40.89,6.47 -13.4,4.31 -24.72,10.32 -33.97,18.02l-22.64 -42.05c12.94,-9.86 28.5,-17.41 46.67,-22.64 18.18,-5.24 37.43,-7.86 57.76,-7.86zm-7.85 210.72c14.48,0 27.34,-3.31 38.58,-9.94 11.25,-6.63 19.18,-16.1 23.8,-28.42l0 -28.65 -59.61 0c-33.27,0 -49.91,10.94 -49.91,32.81 0,10.48 4.16,18.79 12.48,24.95 8.32,6.16 19.87,9.24 34.66,9.24z"/>
 </g>
</svg>
