<?xml version="1.0" encoding="UTF-8"?>
<!DOCTYPE svg PUBLIC "-//W3C//DTD SVG 1.1//EN" "http://www.w3.org/Graphics/SVG/1.1/DTD/svg11.dtd">
<!-- Creator: CorelDRAW 2020 (64-Bit) -->
<svg xmlns="http://www.w3.org/2000/svg" xml:space="preserve" width="3.15783in" height="1.19065in" version="1.1" style="shape-rendering:geometricPrecision; text-rendering:geometricPrecision; image-rendering:optimizeQuality; fill-rule:evenodd; clip-rule:evenodd"
viewBox="0 0 3157.41 1190.49"
 xmlns:xlink="http://www.w3.org/1999/xlink"
 xmlns:xodm="http://www.corel.com/coreldraw/odm/2003">
 <defs>
  <style type="text/css">
   <![CDATA[
    .fil0 {fill:black;fill-rule:nonzero}
   ]]>
  </style>
 </defs>
 <g id="Layer_x0020_1">
  <metadata id="CorelCorpID_0Corel-Layer"/>
  <g id="_2254536746384">
   <g>
    <path class="fil0" d="M275.83 350.95c-2.35,-6.26 -4.89,-10.56 -7.63,-12.91 -2.74,-2.35 -7.63,-3.52 -14.67,-3.52 -1.56,0 -4.69,0 -9.39,0 -3.91,0 -6.26,1.96 -7.04,5.87l0 93.9c0,40.69 1.96,80.99 5.87,120.9 3.91,39.9 5.87,80.21 5.87,120.9l0 16.43c-39.91,-10.17 -75.32,-26.02 -106.23,-47.54 -30.91,-21.52 -56.93,-47.15 -78.06,-76.88 -21.13,-29.73 -37.17,-62.79 -48.12,-99.18 -10.96,-36.39 -16.43,-74.53 -16.43,-114.44 0,-31.3 3.52,-62.99 10.56,-95.07 7.04,-32.08 17.8,-62.41 32.28,-90.97 14.47,-28.56 32.87,-54.39 55.17,-77.47 22.3,-23.08 48.71,-40.89 79.23,-53.41 11.74,-4.7 25.43,-10.57 41.08,-17.61 15.65,-7.04 30.52,-10.56 44.6,-10.56 1.56,0 3.13,0 4.7,0 1.56,0 2.35,0.39 2.35,1.17l66.9 65.73c3.13,3.13 6.26,4.89 9.39,5.28 3.13,0.39 6.65,0.59 10.57,0.59l7.04 0 71.6 -71.6c0,-0.78 0.78,-1.17 2.35,-1.17 1.57,0 3.13,0 4.7,0 12.52,0 25.43,2.54 38.74,7.62 13.3,5.09 25.43,9.98 36.39,14.68 63.38,28.95 110.53,71.6 141.43,127.94 30.91,56.34 46.36,118.94 46.36,187.8 0,39.91 -4.89,78.64 -14.67,116.2 -9.78,37.56 -25.04,71.79 -45.78,102.7 -20.73,30.91 -46.56,57.32 -77.47,79.23 -30.91,21.91 -67.49,37.56 -109.75,46.95l0 -8.22c0,-47.73 2.74,-95.27 8.22,-142.61 5.48,-47.34 8.22,-95.27 8.22,-143.79l0 -46.95c-2.35,-6.26 -4.89,-10.56 -7.63,-12.91 -2.74,-2.35 -7.63,-3.52 -14.67,-3.52 -2.35,0 -5.48,0 -9.39,0 -3.91,0 -6.26,1.96 -7.04,5.87 -0.78,7.82 -1.56,20.15 -2.35,36.97 -0.78,16.82 -1.96,36 -3.52,57.52 -1.56,21.52 -3.13,44.01 -4.69,67.49 -1.57,23.47 -3.13,45.97 -4.7,67.49 -1.56,21.52 -2.93,40.88 -4.11,58.1 -1.17,17.21 -2.15,29.74 -2.93,37.56 -0.78,6.26 -1.76,14.08 -2.93,23.47 -1.18,9.39 -1.76,14.09 -1.76,14.09l-105.64 0 -4.7 -10.57c-0.78,-0.78 -1.96,-8.02 -3.52,-21.71 -1.57,-13.7 -3.13,-29.93 -4.7,-48.71 -1.57,-18.78 -3.13,-37.95 -4.7,-57.52 -1.57,-19.56 -2.74,-35.61 -3.52,-48.12 -0.78,-6.26 -1.56,-17.22 -2.35,-32.87 -0.78,-15.65 -1.37,-32.28 -1.76,-49.89 -0.39,-17.6 -0.78,-34.23 -1.17,-49.88 -0.39,-15.65 -0.59,-26.61 -0.59,-32.87z"/>
    <path class="fil0" d="M815.76 376.78l260.57 0c5.48,0 9.59,-3.33 12.33,-9.98 2.74,-6.65 4.11,-11.54 4.11,-14.67 0,0 -0.59,-1.37 -1.76,-4.11 -1.17,-2.74 -2.54,-4.89 -4.11,-6.46 -0.78,-1.57 -1.76,-3.33 -2.94,-5.28 -1.17,-1.96 -1.76,-2.94 -1.76,-2.94l-265.27 0c0,-51.64 9.19,-98.01 27.58,-139.09 18.39,-41.08 43.62,-75.9 75.71,-104.46 32.08,-28.56 69.64,-50.67 112.68,-66.32 43.04,-15.65 88.82,-23.47 137.33,-23.47 48.52,0 94.29,7.63 137.33,22.89 43.04,15.26 80.6,37.36 112.68,66.31 32.08,28.96 57.51,63.97 76.29,105.05 18.78,41.08 28.17,87.45 28.17,139.09l-266.45 0c-3.91,0 -5.87,3.13 -5.87,9.39 0,6.26 0,9.78 0,10.56 0,3.13 0.2,7.83 0.59,14.09 0.39,6.26 3.72,9.39 9.98,9.39l260.58 0c0,51.45 -9.39,97.42 -28.17,137.91 -18.78,40.69 -44.41,74.93 -76.88,103.1 -32.47,27.98 -70.42,49.49 -113.85,64.16 -43.43,14.87 -89.41,22.3 -137.92,22.3 -46.95,0 -91.55,-7.83 -133.81,-23.48 -42.25,-15.45 -79.43,-37.75 -111.51,-66.51 -32.08,-28.95 -57.71,-63.39 -76.88,-103.49 -19.17,-40.3 -28.76,-84.9 -28.76,-134z"/>
    <path class="fil0" d="M1782.94 173.72c0,1.57 0,5.09 0,10.56 0,4.7 1.96,7.44 5.87,8.22 1.57,0 5.28,0.19 11.15,0.59 5.87,0.39 9.59,0.59 11.15,0.59 28.95,0 57.52,-1.17 85.69,-3.52 28.17,-2.35 57.12,-3.52 86.86,-3.52 29.74,0 59.08,1.17 88.03,3.52 28.95,2.35 58.3,3.52 88.03,3.52 1.57,0 4.89,-0.2 9.98,-0.59 5.09,-0.39 8.41,-0.59 9.98,-0.59 7.04,-3.91 10.57,-10.18 10.57,-18.78 0,-8.61 -3.52,-14.87 -10.57,-18.78 -34.43,-7.04 -65.34,-10.76 -92.72,-11.15 -27.39,-0.39 -58.69,-0.58 -93.9,-0.58l-105.64 0c-1.57,0 -4.89,0.19 -9.98,0.58 -5.09,0.39 -10.76,0.98 -17.02,1.76 -6.26,0.78 -12.52,1.56 -18.78,2.35 -6.26,0.78 -10.96,1.17 -14.08,1.17 -4.7,0.78 -11.93,1.76 -21.71,2.94 -9.78,1.17 -17.41,3.72 -22.89,7.63l0 14.08z"/>
    <path class="fil0" d="M1894.45 532.89c-15.65,0 -23.48,8.22 -23.48,24.65 0,23.47 1.96,47.14 5.87,71.01 3.91,23.87 5.87,47.54 5.87,71.01 -10.96,0 -24.26,-3.13 -39.91,-9.39 -15.65,-6.26 -28.17,-12.52 -37.56,-18.78 -61.82,-37.56 -105.84,-80.99 -132.05,-130.29 -26.21,-49.3 -39.32,-110.33 -39.32,-183.11 0,-52.43 8.02,-100.36 24.06,-143.78 16.04,-43.43 39.12,-80.6 69.25,-111.51 30.13,-30.91 66.51,-54.97 109.16,-72.18 42.65,-17.22 90.97,-25.82 144.96,-25.82 49.3,0 95.66,7.63 139.09,22.89 43.43,15.26 81.38,37.37 113.86,66.32 32.47,28.95 58.3,63.97 77.47,105.05 19.17,41.08 28.76,87.83 28.76,140.26l-172.54 0c-3.91,0 -5.87,3.52 -5.87,10.56 0,6.26 0,9.39 0,9.39 0,1.56 0.2,3.52 0.59,5.87 0.39,2.35 0.59,3.52 0.59,3.52l143.2 143.2 0 5.87c0,0 -1.17,2.35 -3.52,7.04 -2.35,4.69 -4.89,9.98 -7.63,15.84 -2.74,5.87 -5.67,11.74 -8.8,17.61 -3.13,5.87 -5.87,10.76 -8.22,14.67 -9.39,17.21 -20.93,32.48 -34.63,45.78 -13.7,13.3 -28.95,25.04 -45.78,35.21 -16.82,10.17 -34.43,18.98 -52.82,26.41 -18.39,7.44 -36.19,13.89 -53.41,19.37 -3.91,0.78 -8.61,1.96 -14.08,3.52 -5.48,1.56 -8.22,1.95 -8.22,1.17l-165.5 -170.2c0,0 -1.17,-0.19 -3.52,-0.59 -2.35,-0.39 -4.3,-0.59 -5.87,-0.59z"/>
    <path class="fil0" d="M2450.81 353.89c0,-53.21 8.41,-101.53 25.24,-145.35 16.82,-43.62 40.49,-80.99 71.01,-111.89 30.52,-30.91 67.49,-54.58 110.92,-71.4 43.43,-16.82 92.14,-25.23 146.13,-25.23 53.21,0 101.53,8.21 144.97,24.65 43.43,16.43 80.6,39.91 111.51,70.82 30.91,30.91 54.77,68.27 71.59,111.9 16.82,43.82 25.24,92.53 25.24,146.52 0,46.95 -7.83,91.55 -23.47,134.2 -15.65,42.45 -37.95,80.01 -66.9,112.49 -28.95,32.48 -63.58,57.91 -103.88,76.69 -40.3,18.78 -85.1,28.17 -134.39,28.17l0 -354.48c0,-6.26 -3.13,-10.56 -9.39,-12.91 -6.26,-2.35 -11.34,-3.52 -15.26,-3.52 -1.56,0 -5.48,0 -11.73,0 -5.48,0 -8.22,1.96 -8.22,5.87l0 366.21c-50.86,0 -96.84,-9.39 -137.91,-28.17 -41.09,-18.78 -76.1,-44.01 -105.05,-76.1 -28.95,-32.08 -51.25,-69.45 -66.9,-111.9 -15.65,-42.64 -23.48,-88.03 -23.48,-136.54z"/>
   </g>
   <polygon class="fil0" points="297.89,1187.52 297.46,990.54 199.82,1153.56 175.2,1153.56 77.56,993.09 77.56,1187.52 24.92,1187.52 24.92,890.36 70.34,890.36 188.36,1087.33 304.25,890.36 349.67,890.36 350.1,1187.52 "/>
   <path id="1" class="fil0" d="M397.16 960.83l53.06 0 0 226.69 -53.06 0 0 -226.69zm26.74 -37.36c-9.62,0 -17.69,-3.04 -24.2,-9.12 -6.51,-6.09 -9.76,-13.66 -9.76,-22.71 0,-9.06 3.26,-16.63 9.76,-22.71 6.51,-6.09 14.58,-9.13 24.2,-9.13 9.62,0 17.69,2.9 24.2,8.7 6.51,5.8 9.76,13.09 9.76,21.86 0,9.34 -3.18,17.19 -9.55,23.56 -6.37,6.37 -14.51,9.55 -24.41,9.55z"/>
   <path id="2" class="fil0" d="M542.29 993.94c15.29,-23.77 42.17,-35.66 80.66,-35.66l0 50.52c-4.53,-0.85 -8.63,-1.28 -12.31,-1.28 -20.66,0 -36.79,6.01 -48.4,18.04 -11.6,12.03 -17.41,29.36 -17.41,52l0 109.95 -53.06 0 0 -226.69 50.52 0 0 33.11z"/>
   <path id="3" class="fil0" d="M725.2 958.28c33.39,0 58.94,8 76.62,23.99 17.69,15.99 26.53,40.12 26.53,72.38l0 132.88 -50.09 0 0 -27.59c-6.51,9.91 -15.78,17.48 -27.81,22.71 -12.03,5.24 -26.53,7.85 -43.51,7.85 -16.98,0 -31.84,-2.9 -44.58,-8.7 -12.73,-5.8 -22.57,-13.87 -29.5,-24.2 -6.93,-10.33 -10.4,-22 -10.4,-35.02 0,-20.38 7.57,-36.72 22.71,-49.03 15.14,-12.31 38.98,-18.47 71.53,-18.47l58.58 0 0 -3.39c0,-15.85 -4.74,-28.02 -14.22,-36.51 -9.48,-8.49 -23.56,-12.73 -42.24,-12.73 -12.73,0 -25.26,1.98 -37.57,5.94 -12.31,3.96 -22.71,9.48 -31.2,16.56l-20.8 -38.63c11.88,-9.06 26.18,-15.99 42.88,-20.8 16.69,-4.81 34.39,-7.22 53.06,-7.22zm-7.22 193.58c13.31,0 25.12,-3.04 35.45,-9.12 10.33,-6.09 17.62,-14.79 21.86,-26.11l0 -26.32 -54.76 0c-30.57,0 -45.85,10.05 -45.85,30.14 0,9.62 3.82,17.27 11.46,22.92 7.64,5.66 18.26,8.49 31.84,8.49z"/>
   <path id="4" class="fil0" d="M993.86 958.28c22.08,0 41.82,4.81 59.22,14.44 17.41,9.62 31.06,23.21 40.97,40.75 9.9,17.54 14.86,37.78 14.86,60.7 0,22.93 -4.95,43.23 -14.86,60.92 -9.9,17.69 -23.56,31.34 -40.97,40.96 -17.4,9.62 -37.14,14.44 -59.22,14.44 -15.56,0 -29.79,-2.69 -42.66,-8.07 -12.88,-5.38 -23.7,-13.44 -32.48,-24.2l0 29.29 -50.52 0 0 -314.99 53.06 0 0 115.89c9.06,-9.9 19.74,-17.4 32.05,-22.5 12.31,-5.09 25.83,-7.64 40.54,-7.64zm-5.94 186.79c19.53,0 35.59,-6.51 48.19,-19.53 12.59,-13.02 18.89,-30.14 18.89,-51.37 0,-21.23 -6.3,-38.35 -18.89,-51.37 -12.6,-13.02 -28.66,-19.52 -48.19,-19.52 -12.73,0 -24.2,2.9 -34.39,8.7 -10.19,5.8 -18.25,14.08 -24.2,24.84 -5.94,10.75 -8.91,23.21 -8.91,37.36 0,14.15 2.97,26.6 8.91,37.36 5.94,10.75 14.01,19.03 24.2,24.84 10.19,5.8 21.65,8.7 34.39,8.7z"/>
   <path id="5" class="fil0" d="M1344.46 1075.45c0,3.68 -0.28,8.91 -0.85,15.71l-177.87 0c3.11,16.7 11.25,29.93 24.41,39.69 13.16,9.76 29.5,14.65 49.03,14.65 24.91,0 45.42,-8.21 61.55,-24.62l28.44 32.69c-10.19,12.17 -23.06,21.37 -38.63,27.59 -15.56,6.23 -33.11,9.34 -52.64,9.34 -24.9,0 -46.84,-4.95 -65.8,-14.86 -18.96,-9.9 -33.61,-23.7 -43.94,-41.39 -10.33,-17.69 -15.49,-37.71 -15.49,-60.07 0,-22.08 5.02,-41.96 15.07,-59.65 10.05,-17.69 23.99,-31.48 41.82,-41.39 17.83,-9.91 37.92,-14.86 60.28,-14.86 22.08,0 41.82,4.89 59.22,14.65 17.41,9.76 30.99,23.49 40.75,41.18 9.77,17.69 14.65,38.13 14.65,61.34zm-114.62 -74.71c-16.98,0 -31.34,5.02 -43.09,15.07 -11.74,10.05 -18.89,23.42 -21.44,40.12l128.63 0c-2.27,-16.42 -9.2,-29.72 -20.8,-39.9 -11.6,-10.19 -26.04,-15.28 -43.3,-15.28z"/>
   <polygon id="6" class="fil0" points="1367.33,872.53 1420.39,872.53 1420.39,1187.52 1367.33,1187.52 "/>
   <polygon id="7" class="fil0" points="1461.94,872.53 1515,872.53 1515,1187.52 1461.94,1187.52 "/>
   <path id="8" class="fil0" d="M1769.66 1075.45c0,3.68 -0.28,8.91 -0.85,15.71l-177.87 0c3.11,16.7 11.25,29.93 24.41,39.69 13.16,9.76 29.5,14.65 49.03,14.65 24.91,0 45.42,-8.21 61.55,-24.62l28.44 32.69c-10.19,12.17 -23.06,21.37 -38.63,27.59 -15.56,6.23 -33.11,9.34 -52.64,9.34 -24.9,0 -46.84,-4.95 -65.8,-14.86 -18.96,-9.9 -33.61,-23.7 -43.94,-41.39 -10.33,-17.69 -15.49,-37.71 -15.49,-60.07 0,-22.08 5.02,-41.96 15.07,-59.65 10.05,-17.69 23.99,-31.48 41.82,-41.39 17.83,-9.91 37.92,-14.86 60.28,-14.86 22.08,0 41.82,4.89 59.22,14.65 17.41,9.76 30.99,23.49 40.75,41.18 9.77,17.69 14.65,38.13 14.65,61.34zm-114.62 -74.71c-16.98,0 -31.34,5.02 -43.09,15.07 -11.74,10.05 -18.89,23.42 -21.44,40.12l128.63 0c-2.27,-16.42 -9.2,-29.72 -20.8,-39.9 -11.6,-10.19 -26.04,-15.28 -43.3,-15.28z"/>
   <polygon id="9" class="fil0" points="2187.75,1187.52 2187.33,990.54 2089.69,1153.56 2065.07,1153.56 1967.43,993.09 1967.43,1187.52 1914.79,1187.52 1914.79,890.36 1960.21,890.36 2078.23,1087.33 2194.12,890.36 2239.54,890.36 2239.97,1187.52 "/>
   <path id="10" class="fil0" d="M2388.92 1190.49c-22.92,0 -43.58,-4.95 -61.98,-14.86 -18.4,-9.9 -32.76,-23.7 -43.09,-41.39 -10.33,-17.69 -15.49,-37.71 -15.49,-60.07 0,-22.36 5.16,-42.31 15.49,-59.86 10.33,-17.54 24.69,-31.27 43.09,-41.18 18.4,-9.91 39.06,-14.86 61.98,-14.86 23.21,0 44.01,4.95 62.41,14.86 18.4,9.9 32.76,23.63 43.09,41.18 10.33,17.55 15.49,37.5 15.49,59.86 0,22.36 -5.16,42.38 -15.49,60.07 -10.33,17.69 -24.69,31.48 -43.09,41.39 -18.4,9.91 -39.2,14.86 -62.41,14.86zm0 -45.42c19.53,0 35.66,-6.51 48.4,-19.53 12.73,-13.02 19.1,-30.14 19.1,-51.37 0,-21.23 -6.37,-38.35 -19.1,-51.37 -12.73,-13.02 -28.87,-19.52 -48.4,-19.52 -19.53,0 -35.59,6.51 -48.18,19.52 -12.59,13.02 -18.89,30.14 -18.89,51.37 0,21.23 6.3,38.35 18.89,51.37 12.59,13.02 28.65,19.53 48.18,19.53z"/>
   <path id="11" class="fil0" d="M2583.29 993.94c15.29,-23.77 42.17,-35.66 80.66,-35.66l0 50.52c-4.53,-0.85 -8.63,-1.28 -12.31,-1.28 -20.66,0 -36.79,6.01 -48.4,18.04 -11.6,12.03 -17.41,29.36 -17.41,52l0 109.95 -53.06 0 0 -226.69 50.52 0 0 33.11z"/>
   <path id="12" class="fil0" d="M2766.2 958.28c33.39,0 58.94,8 76.62,23.99 17.69,15.99 26.53,40.12 26.53,72.38l0 132.88 -50.09 0 0 -27.59c-6.51,9.91 -15.78,17.48 -27.81,22.71 -12.03,5.24 -26.53,7.85 -43.51,7.85 -16.98,0 -31.84,-2.9 -44.58,-8.7 -12.73,-5.8 -22.57,-13.87 -29.5,-24.2 -6.93,-10.33 -10.4,-22 -10.4,-35.02 0,-20.38 7.57,-36.72 22.71,-49.03 15.14,-12.31 38.98,-18.47 71.53,-18.47l58.58 0 0 -3.39c0,-15.85 -4.74,-28.02 -14.22,-36.51 -9.48,-8.49 -23.56,-12.73 -42.24,-12.73 -12.73,0 -25.26,1.98 -37.57,5.94 -12.31,3.96 -22.71,9.48 -31.2,16.56l-20.8 -38.63c11.88,-9.06 26.18,-15.99 42.88,-20.8 16.69,-4.81 34.39,-7.22 53.06,-7.22zm-7.22 193.58c13.31,0 25.12,-3.04 35.45,-9.12 10.33,-6.09 17.62,-14.79 21.86,-26.11l0 -26.32 -54.76 0c-30.57,0 -45.85,10.05 -45.85,30.14 0,9.62 3.82,17.27 11.46,22.92 7.64,5.66 18.26,8.49 31.84,8.49z"/>
   <path id="13" class="fil0" d="M3037.83 958.28c28.59,0 51.51,8.35 68.77,25.05 17.26,16.7 25.89,41.46 25.89,74.29l0 129.9 -53.06 0 0 -123.11c0,-19.81 -4.67,-34.74 -14.01,-44.79 -9.34,-10.05 -22.64,-15.07 -39.9,-15.07 -19.53,0 -34.95,5.87 -46.27,17.62 -11.32,11.74 -16.98,28.65 -16.98,50.73l0 114.62 -53.06 0 0 -314.99 53.06 0 0 114.62c8.77,-9.34 19.6,-16.49 32.48,-21.44 12.88,-4.96 27.24,-7.43 43.09,-7.43z"/>
  </g>
 </g>
</svg>
